<?xml version="1.0" encoding="UTF-8" standalone="no"?>
<!-- Created with Inkscape (http://www.inkscape.org/) -->

<svg
   xmlns:dc="http://purl.org/dc/elements/1.1/"
   xmlns:cc="http://creativecommons.org/ns#"
   xmlns:rdf="http://www.w3.org/1999/02/22-rdf-syntax-ns#"
   xmlns:svg="http://www.w3.org/2000/svg"
   xmlns="http://www.w3.org/2000/svg"
   xmlns:sodipodi="http://sodipodi.sourceforge.net/DTD/sodipodi-0.dtd"
   xmlns:inkscape="http://www.inkscape.org/namespaces/inkscape"
   width="262.90665"
   height="45"
   viewBox="0 0 69.560715 11.90625"
   version="1.1"
   id="svg1258"
   inkscape:version="0.92.3 (2405546, 2018-03-11)"
   sodipodi:docname="texto_radio_futura.svg">
  <defs
     id="defs1252" />
  <sodipodi:namedview
     id="base"
     pagecolor="#ffffff"
     bordercolor="#666666"
     borderopacity="1.0"
     inkscape:pageopacity="0.0"
     inkscape:pageshadow="2"
     inkscape:zoom="0.35"
     inkscape:cx="-375.64873"
     inkscape:cy="-346.51618"
     inkscape:document-units="px"
     inkscape:current-layer="layer1"
     showgrid="false"
     fit-margin-top="0"
     fit-margin-left="0"
     fit-margin-right="0"
     fit-margin-bottom="0"
     inkscape:window-width="1920"
     inkscape:window-height="1056"
     inkscape:window-x="0"
     inkscape:window-y="24"
     inkscape:window-maximized="1"
     units="px" />
  <metadata
     id="metadata1255">
    <rdf:RDF>
      <cc:Work
         rdf:about="">
        <dc:format>image/svg+xml</dc:format>
        <dc:type
           rdf:resource="http://purl.org/dc/dcmitype/StillImage" />
        <dc:title></dc:title>
      </cc:Work>
    </rdf:RDF>
  </metadata>
  <g
     inkscape:label="Capa 1"
     inkscape:groupmode="layer"
     id="layer1"
     transform="translate(-23.039203,-45.244678)">
    <g
       id="g1846"
       transform="matrix(0.44442962,0,0,0.44442962,-72.871848,-28.386844)"
       style="stroke-width:2.2500751">
      <g
         id="g800"
         transform="matrix(0.26458333,0,0,0.26458333,259.92889,211.96454)"
         style="stroke-width:2.2500751">
        <path
           id="path802"
           d="m -33.8,-96.5 c -0.2,-2.1 0,-5.3 -0.1,-7.5 -0.1,-2.4 -0.5,-4.7 -0.4,-7.1 0,-2.4 0.4,-4.8 0.5,-7.2 0.2,-7.5 -0.1,-15.1 0.1,-22.5 0.1,-2.3 0.2,-4.9 0.2,-7.2 0,-2 -0.3,-5 0.6,-6.8 2.3,-0.2 5.4,2.3 6.9,3.9 1.6,1.7 3.3,4.5 4.2,6.6 2.8,6.6 1.9,12.2 1.5,19 -0.2,3.5 0,6.8 -0.3,10.4 -0.7,6.3 -1.6,10.8 -6.2,15.4 -1,1 -1.4,1.7 -2.7,2.6 -0.7,0.5 -0.9,0.8 -1.9,0.8 -0.8,0 -1.9,-0.1 -2.4,-0.4 z m -7.5,-75.1 c -11.2,0.4 -10.1,-2 -10.1,8.2 0,11.7 1.1,23.7 0.8,35.1 -0.2,5.9 -0.3,11.8 -0.5,17.7 -0.2,5.6 -0.7,12.1 -0.1,17.6 0.3,3 0.3,5.7 0.5,8.6 0.5,6.9 1.2,6.3 6.9,6.8 1.4,0.1 2.8,0.3 4.2,0.3 3,0.1 5.9,0.1 8.9,0.2 5.7,0.2 10.4,0.8 15.2,-2.9 3.6,-2.8 5.5,-6.6 7.5,-10.6 2.3,-4.7 3.8,-8.1 4.9,-13.2 2.4,-11.7 1.2,-22 0.3,-33.7 -0.7,-8.5 -1.2,-14.4 -5.5,-21.7 -1.5,-2.6 -2.2,-3 -4.1,-5.1 -4,-4.4 -6.3,-4.8 -11.8,-6.4 -4.1,-1 -12.8,-1 -17.1,-0.9 z"
           class="st11"
           style="clip-rule:evenodd;fill:#000101;fill-rule:evenodd;stroke-width:2.2500751"
           inkscape:connector-curvature="0" />
        <path
           id="path804"
           d="m -147.7,-152.1 c 2.7,-0.4 7,-1.1 8.9,1.5 1.4,2 2.5,5.9 2.8,8.3 0.4,3.7 -1.3,4.9 -4,6.9 -1.5,1.2 -5.7,3.4 -7.6,3.4 z m 0,39.9 c 1.6,0.9 11.6,30.3 14.8,35 5.2,0.4 12.6,-2.9 18.4,-3 -0.2,-3.1 -2.6,-7.6 -3.8,-10.5 -1.4,-3.4 -2.8,-6.7 -4.1,-10.1 -1.3,-3.4 -2.6,-6.9 -3.9,-10.3 -0.7,-1.9 -3.6,-9.2 -3.8,-10.6 4.5,-2.6 5.5,-3.6 8.4,-7.9 2.3,-3.4 3.9,-8.2 4.1,-12.2 0.1,-4.7 -1.2,-8.8 -3.1,-13.1 -2.1,-4.6 -3.6,-5.9 -7.8,-8.5 -3.9,-2.4 -6.5,-4.2 -11,-5.2 -4.8,-1.1 -10.3,-1.1 -15.3,-1.1 -2.5,0 -4.8,-0.4 -7,1.1 -5,3.3 -3.6,7.3 -3.1,12.1 0.7,8.2 -0.8,14.8 -0.4,23.5 0.1,2.5 0.4,5.2 0.5,7.6 0,2.6 -0.2,5.3 -0.3,7.9 -0.4,10.4 -0.9,20.8 -1.4,31.2 -0.3,7.3 -1.6,8.8 6.5,9.2 2.2,0.1 5.4,-0.1 7.6,-0.3 2.3,-0.3 4.2,-1.1 4.6,-3.7 0.3,-2.2 -0.3,-5.2 -0.4,-7.5 -0.1,-1.9 0.3,-13.7 0.5,-15.7 -0.1,-2.5 0,-5.4 0,-7.9 z"
           class="st11"
           style="clip-rule:evenodd;fill:#000101;fill-rule:evenodd;stroke-width:2.2500751"
           inkscape:connector-curvature="0" />
        <path
           id="path806"
           d="m 58.1,-151.7 c 4.2,-1 5.5,8.6 6,11.3 1,5.3 1.6,10.1 2,15.5 0.2,2.9 0.1,5.6 0.1,8.4 0,5.2 -1.8,17.7 -7,19.3 -4.6,1.4 -6.7,-7.1 -7.3,-10.1 -1.3,-5.9 -0.9,-10.3 -0.7,-16.2 0.1,-2.8 0,-5.8 0.3,-8.5 0.4,-3.5 1.6,-11.6 2.9,-14.7 0.8,-2 1.3,-4.4 3.7,-5 z m 0.4,-22.3 c -5,0.5 -7.9,3.8 -11.4,7 -3.9,3.6 -4.9,6.8 -6.7,11.7 -4.8,12.9 -5.5,17.5 -5.3,31.4 0.1,9.7 1.5,22.8 4.9,31.9 1.7,4.5 3.4,8.1 7,11.4 4.3,4 7.7,5.3 13.6,4.9 2.3,-0.2 4.8,-1.2 6.9,-2.3 1.7,-0.9 3.4,-3.1 4.6,-4.6 5.3,-6.8 6.2,-12 7.9,-19.7 1.9,-8.6 3.3,-14.7 3.9,-23.9 1.1,-16.6 -1,-29.8 -11.9,-42.6 -1.1,-1.3 -3.7,-3.2 -5.3,-3.9 -2.6,-1.3 -5.5,-1.6 -8.2,-1.3 z"
           class="st11"
           style="clip-rule:evenodd;fill:#000101;fill-rule:evenodd;stroke-width:2.2500751"
           inkscape:connector-curvature="0" />
        <path
           id="path808"
           d="m -88.4,-113.2 c -0.2,-2.2 1.9,-9.1 2.4,-12.6 0.2,-1.2 0.1,-3 1.2,-3.8 0.4,0.6 0.5,3.2 0.7,4.2 0.7,3.7 1.7,8.2 2.2,11.6 z m -8.3,36 c 1.3,-1.4 1.5,-5.8 1.8,-7.7 0.4,-2.6 1,-5.4 1.7,-7.9 1.5,-5.4 2.1,-2.1 10.6,-3.2 0.8,-0.1 3.7,-0.7 4.2,-0.5 0.5,0.5 4.2,16.8 4.7,18.9 3.6,0.3 8.6,0.7 12.2,0.6 1.1,0 2.7,0.1 3.1,-1.2 1,-3.3 -1.6,-10.8 -2.5,-14.2 -1.2,-4.5 -2.5,-9.1 -3.6,-13.6 -3.3,-14 -6,-29.3 -8.3,-43.5 -0.8,-4.9 -1.7,-9.3 -3.1,-14.1 -2.2,-7.7 -1,-10 -7.8,-7.4 -2,0.8 -4,1.6 -4.8,3.7 -0.8,2.1 -1.4,4.4 -2.1,6.5 -1.4,4.3 -2.9,8.7 -4.1,13.1 -2.5,9.2 -4,18.6 -6.6,27.9 -1.2,4.4 -2.5,8.9 -3.9,13.3 -0.7,2.2 -1.5,4.3 -2.2,6.4 -0.8,2.6 -4.7,20.3 -4.6,21.1 0.2,1.4 1.5,1.5 2.7,1.6 5.1,0.2 6.8,0.4 12.6,0.2 z"
           class="st11"
           style="clip-rule:evenodd;fill:#000101;fill-rule:evenodd;stroke-width:2.2500751"
           inkscape:connector-curvature="0" />
        <path
           id="path810"
           d="m 24.3,-78.4 c 3.1,-5.4 1.8,-15.8 1.6,-21.9 -0.1,-1.9 -0.1,-3.8 -0.2,-5.7 -0.1,-1.9 -0.3,-4.1 -0.3,-5.9 0,-3.8 -0.3,-7.9 -0.4,-11.7 -0.1,-3.9 0,-7.9 -0.3,-11.7 -0.1,-1.9 -0.4,-3.7 -0.4,-5.6 0,-1.8 0.2,-4 0.4,-5.8 0.4,-4 0.2,-7.7 0.2,-11.7 0,-2 -0.2,-3.9 -0.2,-5.9 0,-2.1 0.1,-3.7 -0.3,-5.8 -2.6,-0.1 -5.3,-0.3 -7.9,0.1 -3.1,0.5 -5.4,-0.1 -8.1,0.1 -1.5,0.1 -1.5,1.5 -1.5,2.7 0,1.4 0,2.8 0,4.1 0,2.8 -0.3,5.1 -0.4,7.9 -0.4,5.4 -0.2,11 -0.3,16.4 -0.1,5.5 -0.2,10.9 -0.3,16.4 0,2.7 -0.2,5.5 -0.1,8.1 0,2.6 0.3,5.4 0.3,8 0,5.4 0.4,11 0,16.4 -0.2,2.9 -0.8,4.4 -0.3,7.5 0.5,3.1 -0.9,5.6 3.1,5 5.1,-0.8 10.1,-0.6 15.4,-1 z"
           class="st11"
           style="clip-rule:evenodd;fill:#000101;fill-rule:evenodd;stroke-width:2.2500751"
           inkscape:connector-curvature="0" />
      </g>
      <g
         id="g812"
         transform="matrix(0.26458333,0,0,0.26458333,259.92889,211.96454)"
         style="stroke-width:2.2500751">
        <path
           id="path814"
           d="m 340.5,-134.8 c -0.7,-2.4 -0.1,-15.7 0.2,-19.6 0.2,-2.1 0.4,-1.6 2.5,-1.5 2.3,0 4.5,0.1 5.8,2.3 2.1,3.4 3.4,9 1.4,12.7 -1.9,3.5 -8,6.3 -9.9,6.1 z m 16.4,11.2 c 11.4,-4.4 15.6,-24.9 8.8,-36.5 -4.7,-8 -15.2,-13.6 -24.7,-14.1 -1.9,-0.1 -11.3,-0.3 -12.6,0.2 -1.3,0.5 -2.7,1.8 -3.6,2.9 -1.2,1.6 -1.3,3.2 -1.3,5.2 -0.1,4.2 0.1,8.7 0.1,12.9 0,8.5 -0.5,16.9 -0.5,25.4 0,4.3 0.1,8.6 -0.1,12.9 -0.4,9.2 -3,29.9 -1.5,36.4 3.4,0.9 9.5,0.6 13.2,0.6 5.5,-0.1 4.2,-5.4 4,-9.5 -0.1,-2.8 0.7,-25.4 1.2,-26.1 0.9,1.6 2.7,7 3.4,9.1 1.1,3.1 2.1,6.2 3.1,9.3 0.7,2.1 6,17.6 6.7,18.2 0.9,0.3 16.7,-2.6 17.9,-3.3 0.1,-2.3 -2.7,-8.3 -3.7,-10.8 -2.6,-6.9 -4.8,-14.6 -7.2,-21.7 -0.9,-2.6 -3.3,-8.6 -3.2,-11.1 z"
           class="st11"
           style="clip-rule:evenodd;fill:#000101;fill-rule:evenodd;stroke-width:2.2500751"
           inkscape:connector-curvature="0" />
        <path
           id="path816"
           d="m 287,-169.7 c -1.2,-0.1 -2.1,-0.3 -3.2,-0.4 -3.8,-0.3 -6.7,0.5 -9.9,0.4 -4.8,0 -4.6,0.1 -4.7,2.5 -0.1,2.2 -0.2,4.4 -0.4,6.6 -0.5,4.9 -0.3,8.7 -0.3,13.5 0.1,4.5 -0.5,9 -0.6,13.5 -0.1,4.5 0.2,9.2 0.3,13.7 0.2,10.9 2.7,38 13.1,43.2 4.1,2 6.5,3.1 11.1,3 8.4,-0.3 12.7,-4.6 16.2,-11.8 1.6,-3.2 2.7,-7.1 3.5,-10.6 1.1,-4.9 1.9,-19.8 2.3,-25.9 0.4,-4.6 0.3,-9 0.3,-13.6 0,-9.4 0,-18.8 0,-28.2 0,-5.1 0.4,-8.7 -5.9,-8.1 -2.3,0.2 -4.4,0.5 -6.8,0.5 -2.1,0 -4.1,-0.2 -4.7,2.3 -0.9,3.8 -0.6,9.4 -0.4,13.3 0.6,10.1 0.4,31.9 -0.1,41.5 -0.2,3.9 -0.3,22 -6.9,21.2 -3.3,-0.4 -3.5,-7.9 -3.7,-10.4 -0.5,-6.9 -0.6,-6.1 -0.4,-13.3 0.3,-9.1 0.3,-18 1,-27.1 l 1,-13.2 c 0.1,-2.2 -0.3,-4.3 -0.3,-6.5 0.4,-2.8 0.4,-3.8 -0.5,-6.1 z"
           class="st11"
           style="clip-rule:evenodd;fill:#000101;fill-rule:evenodd;stroke-width:2.2500751"
           inkscape:connector-curvature="0" />
        <path
           id="path818"
           d="m 189.9,-172.4 c -2,13.6 0,27.3 -0.6,41 -0.3,6.8 -0.6,13.6 -0.9,20.4 -0.2,4.1 -0.2,14.7 -4.9,16.4 -1.3,0.5 -2.7,-0.5 -3.5,-1.4 -0.9,-1 -1.2,-2.5 -1.4,-3.9 -0.4,-3.4 -0.2,-6.8 -0.4,-10.2 -0.4,-5.8 0,-14.8 0.3,-20.8 0.1,-1.8 0,-3.5 0,-5.3 0,-1.7 0.1,-3.4 0.2,-5.1 0.2,-3.3 0.7,-6.4 0.9,-9.7 0.2,-3.4 0.3,-6.8 0.4,-10.3 0,-1.8 -0.2,-3.4 -0.2,-5.1 0,-2.3 -0.3,-2.3 -0.8,-4.4 l -17.7,0.6 c -0.4,1.3 -0.8,12.5 -0.7,14.5 0.1,4.9 0.4,10.1 0,15 -0.2,2.3 -0.7,4.7 -0.7,7.1 0,1.2 0.2,2.4 0.3,3.6 0,1.2 0,2.4 -0.1,3.7 -0.1,2.8 0.5,11.2 0.8,14.3 0.7,7.8 2,18.1 5.1,25.3 3.1,7.3 10.3,12.2 18.4,11.9 18.9,-0.9 20.4,-24.7 21.7,-38.8 1.2,-12.7 1,-31 0.8,-44.5 0,-4.4 0.2,-10.2 -0.9,-14.3 -3.6,-1.1 -12.6,-0.7 -16.1,0 z"
           class="st11"
           style="clip-rule:evenodd;fill:#000101;fill-rule:evenodd;stroke-width:2.2500751"
           inkscape:connector-curvature="0" />
        <path
           id="path820"
           d="m 153.9,-153.8 c 0.2,-1.2 0,-3.3 0.1,-4.7 0.1,-1.4 0.3,-2.8 0.5,-4.1 0.2,-1.5 0.7,-7.8 0.3,-8.8 -1.8,-0.6 -9,-0.1 -11.3,0 -3.6,0.2 -7.6,0.2 -11.1,0.5 -7.1,0.7 -14.7,0.8 -21.9,1.1 -0.2,6.5 0,14.7 0,21.5 0,2.4 -0.4,4.2 -0.6,6.6 -0.3,4.6 0.2,9.4 0,14 l -0.5,13.8 c -0.3,6.5 0.8,14.8 0.6,20.9 -0.1,2.3 -0.2,4.6 -0.2,7 0,6.4 0.4,8.7 5.7,8.6 l 13.3,-0.9 c 1.4,-5.6 0.5,-4.3 0.4,-8.9 0,-4.9 -1.7,-26.8 -1.5,-27.8 1.1,-0.3 4.8,-0.3 6.1,-0.3 2.9,0 8.8,-0.5 11.9,-0.6 1.7,-0.1 4.2,-0.1 5.7,-0.4 0.2,-1.8 0,-3.9 0,-5.7 0,-1.9 0.3,-3.6 0.3,-5.5 0,-4 0.6,-7.8 -2.7,-8.6 -3.2,-0.8 -7.4,-0.1 -10.8,-0.2 -1.4,-0.1 -9.9,-0.4 -10.5,-0.8 -0.4,-1.1 0.4,-8.5 0.4,-10.3 0.1,-4.6 -1.5,-6.2 4.3,-6.5 1.9,-0.1 3.5,0.1 5.3,0.1 3.6,0.1 14,0.3 16.2,0 z"
           class="st11"
           style="clip-rule:evenodd;fill:#000101;fill-rule:evenodd;stroke-width:2.2500751"
           inkscape:connector-curvature="0" />
        <path
           id="path822"
           d="m 396.5,-113.5 c 0.4,-5.6 3.2,-11.1 3.4,-17 h 0.9 c 0.1,3 0.1,5.6 0.6,8.6 0.4,2.2 1.6,5.8 1.5,7.7 -2,0.9 -4.3,0.7 -6.4,0.7 z m -4.1,18.3 c 2.4,0 4.7,0.2 7.1,0 1.6,-0.2 5,-0.7 6.5,-0.6 1.3,4.5 2.7,11.7 3,16.4 0.1,2.1 0.6,1.8 2.6,2.1 4.6,0.7 8.6,0 13.2,-0.5 -0.1,-4.7 -1.3,-9.6 -2.4,-14.1 -3.2,-13.4 -5.6,-28 -7.7,-41.6 -1.5,-9.7 -2.3,-19.3 -4.1,-28.9 -0.4,-2.3 -0.9,-4.6 -1.4,-6.9 -0.3,-1.5 -0.9,-5.2 -2.6,-5.6 -1.6,-0.3 -5,0.9 -6.5,1.7 -2,1.1 -2.7,2.7 -3.3,4.8 -2.4,8.5 -5.4,17 -7.5,25.5 -2.1,8.9 -3.9,17.5 -6.5,26.3 -2.5,8.6 -5.1,16.8 -7.2,25.6 -0.5,2.2 -1.1,4.5 -1.6,6.7 -0.3,1.5 -1.8,5.4 -0.3,6.4 1.2,0.7 5.8,0 7.5,0.1 2.7,0.1 5.1,0.5 7.7,-0.1 0.2,-3.1 0.6,-6.3 1.1,-9.3 0.7,-2.7 2,-5.5 2.4,-8 z"
           class="st11"
           style="clip-rule:evenodd;fill:#000101;fill-rule:evenodd;stroke-width:2.2500751"
           inkscape:connector-curvature="0" />
        <path
           id="path824"
           d="m 245.8,-152.6 c 3,0 14.2,0.9 15.5,-2.1 1,-2.3 0.1,-9.1 0.5,-12.3 0.2,-1.2 0.5,-2.6 0.4,-3.9 -2.1,-0.1 -3.9,-0.5 -6.1,-0.5 -5.2,0 -8.4,-0.6 -12.4,-0.7 l -6.1,-0.3 c -2,-0.2 -4.1,-0.2 -6.1,-0.3 -2,-0.1 -4,-0.4 -6,-0.5 -1.2,-0.1 -10.6,1 -11.5,1.3 -0.2,0.5 -0.2,15.7 -0.1,17.3 0.1,2.7 4.9,1.6 6.6,1.6 2.9,-0.1 5.8,-0.1 8.7,0 0,6.6 0,13.1 0,19.7 0,9.3 -1.1,19.1 -0.4,28.5 0.5,6.5 0.3,3.2 -0.1,9.1 -0.2,3.2 -0.2,6.4 -0.2,9.6 0,2 -0.2,7.9 0.1,9.5 1.2,0.5 5.9,0.2 7.7,0.4 2.5,0.3 5.2,0.3 7.8,0.3 0,-1.8 0.5,-3 0.5,-4.5 0,-1.7 -0.6,-2.3 -0.3,-4.4 0.4,-3.2 0.6,-6.2 0.5,-9.4 -0.1,-13.1 -0.5,-26.6 -0.2,-39.6 0.1,-3.2 0.5,-6.2 0.6,-9.3 0.1,-1.7 0,-3.1 0.2,-4.8 0.1,-1.6 0.3,-3.2 0.4,-4.7 z"
           class="st11"
           style="clip-rule:evenodd;fill:#000101;fill-rule:evenodd;stroke-width:2.2500751"
           inkscape:connector-curvature="0" />
      </g>
    </g>
  </g>
</svg>
